<?xml version="1.0" standalone="no"?>
<!DOCTYPE svg PUBLIC "-//W3C//DTD SVG 20010904//EN"
 "http://www.w3.org/TR/2001/REC-SVG-20010904/DTD/svg10.dtd">
<svg version="1.0" xmlns="http://www.w3.org/2000/svg"
 width="290.000000pt" height="73.000000pt" viewBox="0 0 290.000000 73.000000"
 preserveAspectRatio="xMidYMid meet">

<g transform="translate(0.000000,73.000000) scale(0.100000,-0.100000)"
fill="#000000" stroke="none">
<path d="M0 365 l0 -365 1450 0 1450 0 0 365 0 365 -608 0 -608 0 4 -40 4 -40
-42 0 -42 0 4 40 4 40 -166 0 -166 0 4 -40 4 -40 -42 0 -42 0 4 40 4 40 -608
0 -608 0 0 -365z m1610 240 c0 -34 -1 -35 -40 -35 l-40 0 0 -40 0 -40 -80 0
-80 0 0 40 0 40 -40 0 c-39 0 -40 1 -40 35 l0 35 160 0 160 0 0 -35z m-1442
-79 l3 -36 237 -2 237 -3 3 -37 3 -38 -120 0 -121 0 0 -40 0 -40 40 0 40 0 0
-40 0 -40 80 0 80 0 0 -40 0 -40 81 0 80 0 -3 -38 -3 -37 -115 0 -115 0 -3 38
-3 37 -79 0 -79 0 -3 -37 c-3 -42 3 -40 -120 -42 -37 -1 -38 -2 -38 -36 l0
-35 -78 0 -78 0 4 34 c4 32 7 35 41 38 34 3 36 5 36 38 l1 35 76 3 77 3 3 37
c2 20 1 56 0 79 -4 40 -5 42 -40 45 -35 3 -37 5 -37 38 l-1 35 -76 3 -77 3 -3
37 c-3 35 -5 37 -40 40 -36 3 -38 5 -38 40 l0 37 72 -1 73 -2 3 -36z m1040 0
l3 -36 -80 0 -81 0 0 -40 0 -40 -40 0 -40 0 0 -80 0 -80 81 0 80 0 -3 -37 -3
-38 -115 0 -115 0 -3 37 -3 37 -117 3 -117 3 0 35 0 35 77 3 77 3 3 37 c3 35
5 37 40 40 35 3 37 5 40 40 3 35 5 37 41 40 35 3 37 5 37 36 0 18 2 35 4 37 2
2 55 3 118 2 l113 -1 3 -36z m720 0 c3 -32 6 -35 40 -38 35 -3 37 -5 40 -40 3
-35 5 -37 40 -40 35 -3 37 -5 40 -40 l3 -37 76 -3 77 -3 0 -35 0 -35 -117 -3
-116 -3 -3 -37 -3 -37 -115 0 -115 0 -3 38 -3 37 80 0 81 0 0 80 0 80 -40 0
-40 0 0 40 0 40 -80 0 -80 0 0 33 c0 19 2 36 4 38 2 2 55 3 118 2 l113 -1 3
-36z m952 2 c0 -38 0 -38 -40 -38 l-40 0 0 -40 0 -40 -80 0 -80 0 0 -40 0 -40
-40 0 -40 0 0 -40 0 -40 -40 0 -40 0 0 -40 0 -40 -81 0 -81 0 4 -37 3 -38
-115 0 -115 0 -3 37 -3 38 80 0 81 0 0 40 0 40 80 0 80 0 0 40 0 40 40 0 40 0
0 40 0 40 -121 0 -120 0 3 38 3 37 238 3 237 2 0 34 c0 18 2 35 4 37 2 2 36 4
75 4 l71 0 0 -37z m-1512 -80 l3 -38 -80 0 -81 0 0 33 c0 19 3 37 7 41 4 4 39
5 78 4 l70 -3 3 -37z m317 2 l0 -35 -77 -3 -78 -3 0 34 c0 18 3 37 7 41 4 4
39 5 78 4 l70 -3 0 -35z m-557 -83 l3 -38 -38 3 c-31 2 -39 7 -41 26 -6 40 5
54 40 50 30 -3 33 -6 36 -41z m717 3 c0 -33 -2 -35 -37 -38 -37 -3 -38 -2 -38
31 0 42 7 49 45 45 27 -3 30 -6 30 -38z m-480 -80 l0 -35 -115 0 c-113 0 -115
0 -118 23 -7 50 -1 53 120 50 l113 -3 0 -35z m400 0 l0 -35 -117 -3 -118 -3 0
41 0 41 118 -3 117 -3 0 -35z m-240 -80 l0 -35 -75 0 -75 0 -3 38 -3 38 78 -3
78 -3 0 -35z m1195 -80 l0 -40 40 0 c39 0 40 -1 40 -35 l0 -35 -74 0 -75 0 -3
37 -3 36 -75 1 -75 1 -3 38 -3 37 115 0 116 0 0 -40z"/>
</g>
</svg>
