<svg id="Layer_1" data-name="Layer 1" xmlns="http://www.w3.org/2000/svg" viewBox="0 0 128 64"><defs><style>.cls-1{fill:#010101;}</style></defs><title>Artboard 1</title><g id="layer1"><path id="path3719" class="cls-1" d="M45.77.3.08,25.31l.09.21,41-11.32L54.78,64l.11,0L55,64l3.38-24.67,4.38,11.07.11,0H63L59.57,2.82h8.88L65,50.37h.11l.11,0,4.38-11.1L73,64l.11,0h0l.11,0L86.9,14.19l40.95,11.32.09-.21L82.26.3l-11,6.84L68.64,2.59H59.38L56.76,7.14ZM82.11.66l-9,62.52L69.83,39h-.07l8-20.39-.11,0,.1-.06L71.31,7.24l.06.1Zm-36.2,0L56.64,7.34,50.16,18.59,58.25,39H58.2L54.88,63.18Zm-.35,0L41.11,14,1.06,25Zm36.9,0L127,25,86.91,14ZM82.3.92l4.4,13.13L73.51,62.21ZM45.72.93l8.8,61.28L41.32,14.06ZM59.36,3.08,62.7,49.65l-12.3-31Zm9.3,0L77.57,18.6l-12.25,31Z"/></g></svg>