<?xml version="1.0" encoding="utf-8"?>
<!-- Generator: Adobe Illustrator 22.0.0, SVG Export Plug-In . SVG Version: 6.00 Build 0)  -->
<svg version="1.1"
	 id="svg8" xmlns:cc="http://creativecommons.org/ns#" xmlns:dc="http://purl.org/dc/elements/1.1/" xmlns:rdf="http://www.w3.org/1999/02/22-rdf-syntax-ns#" xmlns:svg="http://www.w3.org/2000/svg"
	 xmlns="http://www.w3.org/2000/svg" xmlns:xlink="http://www.w3.org/1999/xlink" x="0px" y="0px" viewBox="0 0 128 64"
	 style="enable-background:new 0 0 128 64;" xml:space="preserve">
<style type="text/css">
	.st0{fill:none;stroke:#000000;stroke-width:0.2646;}
</style>
<path id="path864-7" class="st0" d="M67,2c3.3,5.3,6.7,10.7,10,16c-4,10.7-8,21.3-12,32C65.7,34,66.3,18,67,2z M61,2
	c-3.3,5.3-6.7,10.7-10,16c4,10.7,8,21.3,12,32C62.3,34,61.7,18,61,2L61,2z M56,10c-3.3-3.3-6.7-6.7-10-10C30.7,8.3,15.3,16.7,0,25
	c13.7-3.7,27.3-7.3,41-11c4.7,16.7,9.3,33.3,14,50c1.3-8.3,2.7-16.7,4-25 M72,10c3.3-3.3,6.7-6.7,10-10c15.3,8.3,30.7,16.7,46,25
	c-13.7-3.7-27.3-7.3-41-11c-4.7,16.7-9.3,33.3-14,50c-1.3-8.3-2.7-16.7-4-25"/>
<g id="g954">
</g>
</svg>
